<?xml version="1.0" encoding="utf-8"?>
<svg viewBox="0 0 500 500" xmlns="http://www.w3.org/2000/svg">
  <g>
    <path d="M 147.04 110.274 C 145.08 113.001 143.66 114.364 142.78 114.364 C 142.167 114.364 141.653 113.617 141.24 112.124 C 140.907 110.851 140.647 109.661 140.46 108.554 C 140.273 107.441 140.18 106.864 140.18 106.824 C 140.013 105.931 139.817 105.184 139.59 104.584 C 139.363 103.991 139.187 103.627 139.06 103.494 L 138.83 103.274 C 138.497 103.014 138.33 102.734 138.33 102.434 C 138.33 101.894 138.793 101.351 139.72 100.804 C 140.64 100.264 141.39 99.994 141.97 99.994 C 142.55 99.994 142.897 100.311 143.01 100.944 C 143.157 101.617 143.327 102.897 143.52 104.784 C 143.72 106.671 144.017 107.987 144.41 108.734 C 144.537 108.921 144.677 109.014 144.83 109.014 C 144.977 109.014 145.107 108.931 145.22 108.764 C 145.907 107.904 146.297 106.977 146.39 105.984 C 146.357 104.717 146.2 103.767 145.92 103.134 C 145.88 103.041 145.763 102.871 145.57 102.624 C 145.37 102.384 145.27 102.161 145.27 101.954 C 145.27 101.487 145.687 101.017 146.52 100.544 C 147.353 100.064 148.087 99.824 148.72 99.824 C 149.353 99.824 149.69 100.151 149.73 100.804 C 149.857 101.831 149.957 102.877 150.03 103.944 C 150.277 106.391 150.597 107.987 150.99 108.734 C 151.083 108.901 151.207 108.984 151.36 108.984 C 151.52 108.984 151.683 108.891 151.85 108.704 C 152.677 107.731 153.09 106.404 153.09 104.724 C 153.01 103.644 152.643 102.907 151.99 102.514 C 151.71 102.327 151.57 102.114 151.57 101.874 C 151.57 101.274 151.953 100.741 152.72 100.274 C 153.487 99.807 154.177 99.574 154.79 99.574 C 155.41 99.574 155.847 99.911 156.1 100.584 C 156.347 101.257 156.47 102.121 156.47 103.174 C 156.47 104.227 156.173 105.474 155.58 106.914 C 154.98 108.347 154.28 109.594 153.48 110.654 C 152.673 111.707 151.883 112.587 151.11 113.294 C 150.337 114.007 149.763 114.364 149.39 114.364 C 148.997 114.364 148.67 114.137 148.41 113.684 C 148.09 113.111 147.867 112.551 147.74 112.004 C 147.607 111.464 147.513 111.061 147.46 110.794 C 147.4 110.521 147.363 110.357 147.35 110.304 C 147.29 110.211 147.237 110.164 147.19 110.164 C 147.143 110.164 147.093 110.201 147.04 110.274 ZM 160.564 105.344 C 160.564 105.457 160.601 105.551 160.674 105.624 C 160.747 105.717 160.841 105.764 160.954 105.764 C 162.021 105.671 162.731 105.167 163.084 104.254 C 163.177 104.047 163.241 103.804 163.274 103.524 C 163.261 102.871 163.001 102.544 162.494 102.544 C 161.914 102.544 161.471 102.824 161.164 103.384 C 160.857 103.944 160.657 104.597 160.564 105.344 Z M 162.484 99.964 C 163.724 99.964 164.694 100.284 165.394 100.924 C 166.094 101.557 166.444 102.517 166.444 103.804 C 166.444 105.091 165.934 106.154 164.914 106.994 C 163.901 107.834 162.617 108.254 161.064 108.254 C 160.844 108.254 160.734 108.367 160.734 108.594 C 160.734 109.041 160.897 109.427 161.224 109.754 C 161.551 110.081 161.997 110.244 162.564 110.244 C 163.131 110.244 163.644 109.984 164.104 109.464 C 164.564 108.937 164.964 108.674 165.304 108.674 C 165.651 108.674 165.927 108.824 166.134 109.124 C 166.341 109.424 166.444 109.847 166.444 110.394 C 166.444 110.947 166.307 111.501 166.034 112.054 C 165.767 112.601 165.447 113.014 165.074 113.294 C 164.701 113.574 164.281 113.797 163.814 113.964 C 163.121 114.231 162.387 114.364 161.614 114.364 C 160.841 114.364 160.117 114.177 159.444 113.804 C 158.771 113.431 158.247 112.924 157.874 112.284 C 157.147 111.017 156.784 109.614 156.784 108.074 C 156.784 106.534 156.971 105.194 157.344 104.054 C 157.717 102.914 158.357 101.947 159.264 101.154 C 160.164 100.361 161.237 99.964 162.484 99.964 ZM 184.33 109.764 L 184.42 105.234 C 184.42 104.694 184.373 104.221 184.28 103.814 C 184.187 103.414 184.04 103.097 183.84 102.864 C 183.647 102.631 183.55 102.384 183.55 102.124 C 183.55 101.544 184.017 101.007 184.95 100.514 C 185.883 100.021 186.603 99.774 187.11 99.774 C 187.61 99.774 187.95 99.877 188.13 100.084 C 188.303 100.284 188.39 100.657 188.39 101.204 C 188.39 101.744 188.343 102.597 188.25 103.764 C 188.157 104.931 188.11 105.634 188.11 105.874 C 188.11 107.907 188.55 108.924 189.43 108.924 C 190.063 108.924 190.493 108.264 190.72 106.944 C 190.813 106.457 190.86 105.914 190.86 105.314 C 190.86 104.121 190.757 103.234 190.55 102.654 C 190.343 102.394 190.24 102.144 190.24 101.904 C 190.24 101.344 190.66 100.871 191.5 100.484 C 192.34 100.104 193.083 99.914 193.73 99.914 C 194.37 99.914 194.69 100.234 194.69 100.874 C 194.69 101.521 194.63 102.524 194.51 103.884 C 194.39 105.251 194.33 106.331 194.33 107.124 C 194.33 107.917 194.34 108.477 194.36 108.804 C 194.38 109.131 194.477 109.614 194.65 110.254 C 194.83 110.901 195.07 111.317 195.37 111.504 C 195.683 111.651 195.84 111.851 195.84 112.104 C 195.84 112.357 195.767 112.587 195.62 112.794 C 194.927 113.747 193.833 114.224 192.34 114.224 C 191.5 114.164 191.023 113.844 190.91 113.264 L 190.72 112.314 C 190.7 112.187 190.643 112.124 190.55 112.124 L 190.33 112.234 C 189.657 113.501 188.63 114.134 187.25 114.134 C 185.303 114.101 184.33 112.644 184.33 109.764 ZM 206.592 107.334 L 206.592 107.864 L 206.622 108.534 L 206.622 108.644 C 206.622 109.637 206.922 110.337 207.522 110.744 C 207.802 110.971 207.942 111.214 207.942 111.474 C 207.942 111.734 207.875 111.957 207.742 112.144 C 207.329 112.744 206.815 113.221 206.202 113.574 C 205.382 114.061 204.662 114.304 204.042 114.304 C 203.429 114.304 203.095 114.004 203.042 113.404 C 203.002 112.937 202.909 112.704 202.762 112.704 L 202.562 112.824 C 201.929 113.697 201.089 114.134 200.042 114.134 C 199.275 114.134 198.619 113.937 198.072 113.544 C 197.519 113.157 197.102 112.627 196.822 111.954 C 196.282 110.681 196.012 109.251 196.012 107.664 C 196.012 105.971 196.442 104.337 197.302 102.764 C 197.729 102.017 198.305 101.407 199.032 100.934 C 199.759 100.461 200.562 100.224 201.442 100.224 C 201.855 100.224 202.192 100.277 202.452 100.384 L 202.842 100.554 C 202.975 100.554 203.055 100.404 203.082 100.104 C 203.109 99.811 203.122 99.424 203.122 98.944 C 203.122 98.471 203.102 98.081 203.062 97.774 C 203.029 97.461 202.982 97.231 202.922 97.084 C 202.869 96.937 202.805 96.817 202.732 96.724 C 202.619 96.571 202.432 96.411 202.172 96.244 C 201.925 96.077 201.802 95.844 201.802 95.544 C 201.802 94.931 202.332 94.344 203.392 93.784 C 204.445 93.224 205.315 92.944 206.002 92.944 C 206.529 92.944 206.819 93.177 206.872 93.644 C 206.912 93.831 206.932 94.204 206.932 94.764 C 206.932 95.324 206.872 96.461 206.752 98.174 C 206.625 99.894 206.562 101.537 206.562 103.104 L 206.562 105.904 L 206.592 107.334 Z M 200.772 109.154 C 201.459 109.154 202.012 108.761 202.432 107.974 C 202.852 107.194 203.062 106.494 203.062 105.874 C 203.062 104.421 202.662 103.694 201.862 103.694 C 201.209 103.694 200.662 104.107 200.222 104.934 C 199.782 105.767 199.562 106.557 199.562 107.304 C 199.562 108.464 199.965 109.081 200.772 109.154 ZM 219.168 100.104 C 218.828 103.131 218.658 106.207 218.658 109.334 C 218.658 112.461 218.495 114.704 218.168 116.064 C 217.841 117.431 217.208 118.551 216.268 119.424 C 215.328 120.304 214.205 120.744 212.898 120.744 C 212.131 120.744 211.468 120.534 210.908 120.114 C 210.348 119.694 210.068 119.111 210.068 118.364 C 210.068 117.897 210.195 117.527 210.448 117.254 C 210.695 116.987 210.951 116.824 211.218 116.764 L 211.608 116.714 C 212.281 116.674 212.845 116.497 213.298 116.184 C 213.758 115.864 214.081 115.471 214.268 115.004 C 214.568 114.257 214.718 113.537 214.718 112.844 L 214.718 112.624 C 214.698 112.491 214.631 112.424 214.518 112.424 L 214.238 112.564 C 213.998 112.924 213.695 113.201 213.328 113.394 C 212.961 113.587 212.648 113.704 212.388 113.744 L 212.028 113.774 C 211.221 113.774 210.538 113.564 209.978 113.144 C 209.418 112.724 209.028 112.177 208.808 111.504 C 208.415 110.331 208.218 109.237 208.218 108.224 C 208.218 107.217 208.311 106.271 208.498 105.384 C 208.685 104.497 208.978 103.634 209.378 102.794 C 209.778 101.954 210.351 101.274 211.098 100.754 C 211.845 100.227 212.631 99.964 213.458 99.964 C 214.278 99.964 214.901 100.151 215.328 100.524 C 215.388 100.637 215.471 100.694 215.578 100.694 C 215.691 100.694 215.785 100.637 215.858 100.524 C 216.551 99.651 217.365 99.214 218.298 99.214 C 218.878 99.214 219.168 99.511 219.168 100.104 Z M 213.668 109.014 C 214.121 109.014 214.495 108.771 214.788 108.284 C 215.075 107.797 215.215 107.144 215.208 106.324 C 215.195 105.504 215.025 104.794 214.698 104.194 C 214.371 103.601 213.985 103.304 213.538 103.304 C 213.091 103.304 212.721 103.551 212.428 104.044 C 212.141 104.537 211.998 105.181 211.998 105.974 C 211.998 106.767 212.161 107.471 212.488 108.084 C 212.815 108.704 213.208 109.014 213.668 109.014 ZM 223.564 105.344 C 223.564 105.457 223.601 105.551 223.674 105.624 C 223.747 105.717 223.841 105.764 223.954 105.764 C 225.021 105.671 225.731 105.167 226.084 104.254 C 226.177 104.047 226.241 103.804 226.274 103.524 C 226.261 102.871 226.001 102.544 225.494 102.544 C 224.914 102.544 224.471 102.824 224.164 103.384 C 223.857 103.944 223.657 104.597 223.564 105.344 Z M 225.484 99.964 C 226.724 99.964 227.694 100.284 228.394 100.924 C 229.094 101.557 229.444 102.517 229.444 103.804 C 229.444 105.091 228.934 106.154 227.914 106.994 C 226.901 107.834 225.617 108.254 224.064 108.254 C 223.844 108.254 223.734 108.367 223.734 108.594 C 223.734 109.041 223.897 109.427 224.224 109.754 C 224.551 110.081 224.997 110.244 225.564 110.244 C 226.131 110.244 226.644 109.984 227.104 109.464 C 227.564 108.937 227.964 108.674 228.304 108.674 C 228.651 108.674 228.927 108.824 229.134 109.124 C 229.341 109.424 229.444 109.847 229.444 110.394 C 229.444 110.947 229.307 111.501 229.034 112.054 C 228.767 112.601 228.447 113.014 228.074 113.294 C 227.701 113.574 227.281 113.797 226.814 113.964 C 226.121 114.231 225.387 114.364 224.614 114.364 C 223.841 114.364 223.117 114.177 222.444 113.804 C 221.771 113.431 221.247 112.924 220.874 112.284 C 220.147 111.017 219.784 109.614 219.784 108.074 C 219.784 106.534 219.971 105.194 220.344 104.054 C 220.717 102.914 221.357 101.947 222.264 101.154 C 223.164 100.361 224.237 99.964 225.484 99.964 ZM 234.34 96.024 L 234.29 97.364 C 234.29 97.851 234.397 98.121 234.61 98.174 C 234.823 98.234 235.033 98.264 235.24 98.264 C 235.447 98.264 235.753 98.244 236.16 98.204 C 236.553 98.204 236.75 98.457 236.75 98.964 C 236.75 99.911 236.07 100.647 234.71 101.174 C 234.523 101.247 234.39 101.414 234.31 101.674 C 234.203 102.814 234.15 104.151 234.15 105.684 C 234.15 107.211 234.203 108.217 234.31 108.704 C 234.403 109.151 234.74 109.421 235.32 109.514 C 235.453 109.514 235.577 109.581 235.69 109.714 C 235.89 109.954 235.99 110.191 235.99 110.424 C 235.99 110.657 235.973 110.881 235.94 111.094 C 235.9 111.314 235.81 111.614 235.67 111.994 C 235.53 112.374 235.353 112.727 235.14 113.054 C 234.927 113.381 234.603 113.667 234.17 113.914 C 233.743 114.154 233.26 114.274 232.72 114.274 C 231.787 114.274 231.113 113.724 230.7 112.624 C 230.553 112.197 230.48 111.684 230.48 111.084 L 230.7 103.554 C 230.7 102.641 230.65 101.894 230.55 101.314 C 230.443 100.734 230.083 100.191 229.47 99.684 C 229.21 99.497 229.08 99.237 229.08 98.904 C 229.08 98.571 229.247 98.234 229.58 97.894 C 230.607 97.261 231.55 96.264 232.41 94.904 C 232.67 94.544 232.997 94.364 233.39 94.364 C 234.023 94.364 234.34 94.917 234.34 96.024 Z" transform="matrix(1, 0, 0, 1, 0, 0)" style="white-space: pre;"/>
    <g style="" transform="matrix(0.524233, 0, 0, 0.544902, 60.642731, -56.194527)">
      <g transform="matrix(1, 0, 0, 1, 3.239734, -7.21026)">
        <rect x="111.676" y="89.798" width="6.53" height="9.852" style="" transform="matrix(1, 0, 0.000095, 1, 92.853645, 173.731842)"/>
        <rect x="121.394" y="89.798" width="6.53" height="9.852" style="" transform="matrix(1, 0, 0.000095, 1, 92.853645, 173.731842)"/>
        <rect x="111.676" y="108.353" width="6.53" height="8.868" style="" transform="matrix(1, 0, 0.000095, 1, 92.85688, 207.74794)"/>
        <rect x="121.394" y="108.353" width="6.53" height="8.868" style="" transform="matrix(1, 0, 0.000095, 1, 92.85688, 207.74794)"/>
        <path d="M 212.565 234.641 L 218.915 234.641 C 221.122 234.641 222.722 234.778 223.715 235.051 C 224.715 235.318 225.432 235.638 225.865 236.011 C 226.812 236.831 227.285 238.091 227.285 239.791 C 227.285 241.064 226.605 242.268 225.245 243.401 C 226.978 244.281 227.845 245.914 227.845 248.301 C 227.845 250.168 227.235 251.554 226.015 252.461 C 224.795 253.368 222.972 253.868 220.545 253.961 L 212.565 253.961 L 212.285 251.641 C 212.525 251.321 213.038 251.011 213.825 250.711 L 213.825 237.921 C 213.058 237.641 212.545 237.321 212.285 236.961 L 212.565 234.641 Z M 220.345 245.591 L 217.855 245.591 L 217.855 250.911 L 219.785 250.911 C 221.052 250.911 222.012 250.724 222.665 250.351 C 223.318 249.978 223.645 249.304 223.645 248.331 C 223.645 247.364 223.388 246.664 222.875 246.231 C 222.362 245.804 221.518 245.591 220.345 245.591 Z M 219.305 237.691 L 217.855 237.691 L 217.855 242.541 L 220.145 242.541 C 221.098 242.541 221.828 242.298 222.335 241.811 C 222.835 241.324 223.085 240.731 223.085 240.031 C 223.085 239.331 222.908 238.804 222.555 238.451 C 222.202 238.098 221.792 237.881 221.325 237.801 C 220.858 237.728 220.185 237.691 219.305 237.691 Z" transform="matrix(1.92084801197052, 0, 0, 2.9024980068206787, -208.01730346679688, -414.7219543457031)" style="white-space: pre;"/>
      </g>
    </g>
    <path d="M 231.92 79.8 L 231.92 79.58 C 231.92 79.307 231.87 78.977 231.77 78.59 C 231.67 78.21 231.513 77.837 231.3 77.47 C 231.093 77.103 230.83 76.77 230.51 76.47 C 230.19 76.17 229.81 75.957 229.37 75.83 C 229.17 75.757 228.99 75.757 228.83 75.83 C 228.83 76.27 228.843 76.793 228.87 77.4 C 228.897 78.013 228.927 78.653 228.96 79.32 C 229 79.987 229.043 80.67 229.09 81.37 C 229.13 82.07 229.18 82.73 229.24 83.35 C 229.293 83.33 229.393 83.303 229.54 83.27 C 230.067 83.103 230.48 82.91 230.78 82.69 C 231.08 82.477 231.303 82.233 231.45 81.96 C 231.597 81.687 231.697 81.393 231.75 81.08 C 231.803 80.773 231.85 80.447 231.89 80.1 L 231.92 79.8 Z M 225 73.21 C 225 73.443 225.177 73.607 225.53 73.7 C 225.883 73.787 226.463 73.877 227.27 73.97 C 227.25 73.443 227.23 72.917 227.21 72.39 C 227.197 71.857 227.17 71.353 227.13 70.88 C 226.55 71.1 226.05 71.383 225.63 71.73 C 225.21 72.077 225 72.57 225 73.21 Z M 229.81 74.35 C 230.41 74.517 230.933 74.8 231.38 75.2 C 231.827 75.6 232.207 76.047 232.52 76.54 C 232.827 77.033 233.06 77.55 233.22 78.09 C 233.373 78.623 233.45 79.12 233.45 79.58 L 233.45 79.96 L 233.42 80.26 C 233.387 80.607 233.333 80.99 233.26 81.41 C 233.187 81.83 233.037 82.25 232.81 82.67 C 232.577 83.09 232.237 83.48 231.79 83.84 C 231.343 84.207 230.74 84.507 229.98 84.74 C 229.867 84.78 229.76 84.81 229.66 84.83 C 229.56 84.843 229.457 84.87 229.35 84.91 C 229.403 85.51 229.447 86.003 229.48 86.39 C 229.52 86.77 229.54 86.977 229.54 87.01 C 229.54 87.217 229.47 87.39 229.33 87.53 C 229.197 87.677 229.01 87.76 228.77 87.78 C 228.57 87.8 228.397 87.74 228.25 87.6 C 228.103 87.467 228.023 87.3 228.01 87.1 C 228.01 87.04 227.99 86.83 227.95 86.47 C 227.917 86.103 227.88 85.637 227.84 85.07 C 227.46 85.057 227.077 85 226.69 84.9 C 226.31 84.793 225.857 84.67 225.33 84.53 C 224.797 84.363 224.35 84.12 223.99 83.8 C 223.623 83.48 223.32 83.153 223.08 82.82 C 222.847 82.48 222.673 82.17 222.56 81.89 C 222.453 81.603 222.39 81.417 222.37 81.33 C 222.37 81.163 222.43 81.013 222.55 80.88 C 222.67 80.74 222.867 80.633 223.14 80.56 C 223.507 80.56 223.753 80.743 223.88 81.11 C 223.987 81.403 224.13 81.677 224.31 81.93 C 224.457 82.15 224.653 82.373 224.9 82.6 C 225.147 82.827 225.453 82.987 225.82 83.08 C 226.24 83.207 226.597 83.307 226.89 83.38 C 227.177 83.453 227.45 83.497 227.71 83.51 C 227.65 82.877 227.6 82.207 227.56 81.5 C 227.513 80.8 227.47 80.11 227.43 79.43 C 227.397 78.743 227.367 78.09 227.34 77.47 C 227.313 76.85 227.3 76.303 227.3 75.83 L 227.21 75.5 C 226.79 75.467 226.363 75.417 225.93 75.35 C 225.49 75.29 225.09 75.18 224.73 75.02 C 224.363 74.867 224.06 74.65 223.82 74.37 C 223.587 74.083 223.47 73.697 223.47 73.21 C 223.47 72.603 223.583 72.09 223.81 71.67 C 224.037 71.257 224.307 70.907 224.62 70.62 C 224.927 70.34 225.253 70.107 225.6 69.92 C 225.947 69.74 226.247 69.597 226.5 69.49 C 226.593 69.45 226.69 69.413 226.79 69.38 C 226.89 69.34 226.993 69.303 227.1 69.27 C 227.087 68.903 227.073 68.617 227.06 68.41 C 227.053 68.197 227.05 68.073 227.05 68.04 C 227.05 67.84 227.117 67.667 227.25 67.52 C 227.39 67.373 227.577 67.29 227.81 67.27 C 228.017 67.27 228.19 67.34 228.33 67.48 C 228.477 67.613 228.56 67.78 228.58 67.98 C 228.58 68 228.583 68.107 228.59 68.3 C 228.603 68.487 228.62 68.747 228.64 69.08 C 228.693 69.06 228.75 69.05 228.81 69.05 C 228.877 69.05 228.937 69.05 228.99 69.05 C 229.463 69.05 229.923 69.083 230.37 69.15 C 230.817 69.21 231.233 69.287 231.62 69.38 C 232 69.507 232.18 69.817 232.16 70.31 C 232.073 70.71 231.763 70.89 231.23 70.85 C 230.87 70.763 230.497 70.697 230.11 70.65 C 229.73 70.603 229.357 70.58 228.99 70.58 L 228.69 70.58 C 228.723 71.107 228.747 71.68 228.76 72.3 C 228.767 72.92 228.78 73.54 228.8 74.16 C 228.98 74.2 229.153 74.233 229.32 74.26 C 229.48 74.287 229.643 74.317 229.81 74.35 Z" transform="matrix(0.5333399772644043, 0, 0, 0.3339740037918091, 99.07740783691406, 69.55803680419922)" style="fill-opacity: 0.76; white-space: pre;"/>
  </g>
</svg>